<svg xmlns="http://www.w3.org/2000/svg" xmlns:xlink="http://www.w3.org/1999/xlink" width="500" zoomAndPan="magnify" viewBox="0 0 375 374.999991" height="500" preserveAspectRatio="xMidYMid meet" version="1.0"><defs><g/><clipPath id="6440d63a34"><path d="M 32.464844 26.09375 L 224.957031 26.09375 L 224.957031 218.589844 L 32.464844 218.589844 Z M 32.464844 26.09375 " clip-rule="nonzero"/></clipPath><clipPath id="726c7ff0e5"><path d="M 128.710938 26.09375 C 75.554688 26.09375 32.464844 69.1875 32.464844 122.339844 C 32.464844 175.496094 75.554688 218.589844 128.710938 218.589844 C 181.867188 218.589844 224.957031 175.496094 224.957031 122.339844 C 224.957031 69.1875 181.867188 26.09375 128.710938 26.09375 Z M 128.710938 26.09375 " clip-rule="nonzero"/></clipPath><clipPath id="092e560a9c"><path d="M 128.710938 26.09375 L 321.207031 26.09375 L 321.207031 218.589844 L 128.710938 218.589844 Z M 128.710938 26.09375 " clip-rule="nonzero"/></clipPath><clipPath id="5c8d738126"><path d="M 224.957031 26.09375 C 171.800781 26.09375 128.710938 69.1875 128.710938 122.339844 C 128.710938 175.496094 171.800781 218.589844 224.957031 218.589844 C 278.113281 218.589844 321.207031 175.496094 321.207031 122.339844 C 321.207031 69.1875 278.113281 26.09375 224.957031 26.09375 Z M 224.957031 26.09375 " clip-rule="nonzero"/></clipPath><clipPath id="164c7b7c03"><path d="M 65.390625 48.8125 L 291.140625 48.8125 L 291.140625 195.8125 L 65.390625 195.8125 Z M 65.390625 48.8125 " clip-rule="nonzero"/></clipPath></defs><g clip-path="url(#6440d63a34)"><g clip-path="url(#726c7ff0e5)"><path fill="#fac90d" d="M 32.464844 26.09375 L 224.957031 26.09375 L 224.957031 218.589844 L 32.464844 218.589844 Z M 32.464844 26.09375 " fill-opacity="1" fill-rule="nonzero"/></g></g><g clip-path="url(#092e560a9c)"><g clip-path="url(#5c8d738126)"><path fill="#5ce1e6" d="M 128.710938 26.09375 L 321.207031 26.09375 L 321.207031 218.589844 L 128.710938 218.589844 Z M 128.710938 26.09375 " fill-opacity="1" fill-rule="nonzero"/></g></g><g clip-path="url(#164c7b7c03)"><path fill="#000000" d="M 133.480469 106.527344 C 132.179688 105.902344 130.671875 105.859375 129.125 106.402344 C 126.535156 107.316406 124.0625 109.800781 122.507812 113.054688 C 119.941406 118.433594 120.734375 123.992188 124.308594 125.710938 C 125.007812 126.046875 125.761719 126.214844 126.554688 126.214844 C 127.238281 126.214844 127.949219 126.089844 128.667969 125.835938 C 131.257812 124.925781 133.730469 122.4375 135.285156 119.183594 C 137.851562 113.808594 137.058594 108.246094 133.480469 106.527344 Z M 132.050781 117.640625 C 130.914062 120.019531 129.164062 121.863281 127.476562 122.457031 C 126.839844 122.679688 126.292969 122.691406 125.863281 122.484375 C 124.371094 121.765625 124.003906 118.242188 125.742188 114.597656 C 126.878906 112.222656 128.628906 110.375 130.316406 109.78125 C 130.648438 109.664062 130.957031 109.605469 131.234375 109.605469 C 131.492188 109.605469 131.722656 109.65625 131.929688 109.757812 C 133.421875 110.472656 133.789062 113.996094 132.050781 117.640625 Z M 120.996094 103.601562 C 121.542969 103.703125 122.121094 103.757812 122.714844 103.757812 C 124.90625 103.757812 127.367188 103.054688 129.648438 101.734375 C 134.792969 98.75 137.273438 93.714844 135.292969 90.269531 C 134.570312 89.011719 133.347656 88.125 131.753906 87.695312 C 129.105469 86.988281 125.667969 87.636719 122.558594 89.4375 C 120.085938 90.871094 118.230469 92.78125 117.1875 94.757812 C 116.332031 93.820312 115.378906 93.078125 114.378906 92.589844 C 112.90625 91.875 111.402344 91.742188 110.039062 92.21875 C 106.289062 93.519531 104.871094 98.953125 106.816406 104.589844 C 107.988281 108 110.164062 110.75 112.636719 111.953125 C 113.527344 112.386719 114.433594 112.605469 115.308594 112.605469 C 115.878906 112.605469 116.4375 112.511719 116.976562 112.324219 C 119.902344 111.308594 121.398438 107.777344 120.996094 103.601562 Z M 115.800781 108.941406 C 115.351562 109.097656 114.8125 109.023438 114.203125 108.730469 C 112.59375 107.945312 111.0625 105.914062 110.203125 103.421875 C 108.886719 99.605469 109.652344 96.144531 111.214844 95.601562 C 111.371094 95.546875 111.535156 95.523438 111.710938 95.523438 C 112.046875 95.523438 112.414062 95.617188 112.8125 95.8125 C 114.421875 96.59375 115.953125 98.628906 116.8125 101.121094 C 118.128906 104.9375 117.363281 108.398438 115.800781 108.941406 Z M 120.023438 99.117188 C 119.195312 97.675781 120.871094 94.558594 124.355469 92.539062 C 126.082031 91.539062 127.933594 90.992188 129.476562 90.992188 C 129.960938 90.992188 130.417969 91.046875 130.828125 91.15625 C 131.488281 91.335938 131.945312 91.636719 132.1875 92.054688 C 133.015625 93.496094 131.335938 96.613281 127.851562 98.632812 C 125.582031 99.945312 123.101562 100.476562 121.378906 100.015625 C 120.71875 99.835938 120.261719 99.535156 120.023438 99.117188 Z M 289.144531 120.914062 L 272.710938 60.457031 C 270.855469 53.632812 264.632812 48.863281 257.578125 48.863281 L 98.953125 48.863281 C 91.898438 48.863281 85.675781 53.632812 83.820312 60.457031 L 67.390625 120.914062 C 66.0625 125.792969 65.390625 130.828125 65.390625 135.882812 L 65.390625 180.027344 C 65.390625 188.703125 72.425781 195.761719 81.074219 195.761719 L 275.457031 195.761719 C 284.105469 195.761719 291.140625 188.703125 291.140625 180.027344 L 291.140625 135.882812 C 291.140625 130.828125 290.46875 125.792969 289.144531 120.914062 Z M 266.847656 56.804688 C 267.945312 58.117188 268.785156 59.667969 269.253906 61.398438 L 285.6875 121.855469 C 286.339844 124.265625 286.820312 126.714844 287.132812 129.191406 C 285.699219 134.007812 281.785156 137.605469 277.035156 138.726562 L 277.035156 135.882812 C 277.035156 135.882812 277.035156 135.878906 277.035156 135.878906 C 277.035156 135.871094 277.035156 135.867188 277.035156 135.863281 C 277.03125 130.816406 276.359375 125.785156 275.039062 120.914062 L 260.425781 67.148438 C 263.257812 65.09375 265.410156 62.101562 266.375 58.546875 Z M 250.976562 123.960938 C 253.351562 122.332031 256.167969 121.449219 259.082031 121.449219 C 267 121.449219 273.445312 127.914062 273.453125 135.863281 C 273.453125 135.871094 273.453125 135.875 273.453125 135.882812 L 273.453125 139.097656 L 255.484375 139.097656 L 255.484375 135.875 C 255.484375 131.3125 253.78125 127.140625 250.976562 123.960938 Z M 229.425781 123.960938 C 231.800781 122.332031 234.617188 121.449219 237.53125 121.449219 C 245.453125 121.449219 251.902344 127.921875 251.902344 135.875 L 251.902344 139.097656 L 233.933594 139.097656 L 233.933594 135.875 C 233.933594 131.3125 232.230469 127.140625 229.425781 123.960938 Z M 207.878906 123.960938 C 210.253906 122.332031 213.070312 121.449219 215.980469 121.449219 C 223.90625 121.449219 230.351562 127.921875 230.351562 135.875 L 230.351562 139.097656 L 212.382812 139.097656 L 212.382812 135.875 C 212.382812 131.3125 210.679688 127.140625 207.878906 123.960938 Z M 183.128906 80.320312 C 183.621094 79.828125 186.078125 77.527344 189.921875 76.269531 C 190.59375 77.398438 191.417969 78.519531 192.421875 79.597656 C 192.347656 80.371094 192.292969 81.546875 192.394531 82.980469 C 186.753906 84.265625 183.089844 87.675781 182.359375 88.402344 C 181.503906 89.261719 180.738281 90.191406 180.058594 91.179688 L 180.058594 84.621094 C 180.835938 83.03125 181.867188 81.585938 183.128906 80.320312 Z M 180.058594 78.351562 L 180.058594 70.140625 L 187.535156 70.140625 C 187.730469 71.058594 188.003906 72.023438 188.367188 73.011719 C 183.988281 74.5625 181.175781 77.207031 180.597656 77.789062 C 180.414062 77.972656 180.234375 78.160156 180.058594 78.351562 Z M 242.203125 86.105469 C 240.835938 85.488281 239.410156 85.019531 237.945312 84.699219 C 238.0625 83.980469 238.136719 83.296875 238.1875 82.65625 C 239.558594 82.070312 240.746094 81.402344 241.722656 80.757812 C 241.675781 82.105469 241.746094 83.984375 242.203125 86.105469 Z M 240.957031 89.472656 C 242.074219 89.992188 243.132812 90.636719 244.121094 91.382812 C 244.96875 92.96875 246.097656 94.5625 247.597656 96.0625 C 248 96.464844 248.996094 97.394531 250.5 98.402344 L 229.605469 98.402344 C 230.898438 97.476562 231.726562 96.6875 232.011719 96.402344 C 234.640625 93.773438 236.191406 90.882812 237.089844 88.179688 C 238.425781 88.464844 239.722656 88.894531 240.957031 89.472656 Z M 250.132812 93.53125 C 245.632812 89.03125 245.222656 83.394531 245.308594 80.78125 C 252.558594 80.382812 257.472656 85.0625 258.039062 85.628906 C 262.539062 90.128906 262.949219 95.761719 262.859375 98.378906 C 255.613281 98.769531 250.699219 94.097656 250.132812 93.53125 Z M 260.570312 83.097656 C 259.480469 82.003906 254.007812 77.003906 245.800781 77.179688 C 247.761719 74.875 248.945312 72.421875 249.644531 70.140625 L 251.246094 70.140625 C 253.335938 70.140625 255.347656 69.71875 257.203125 68.953125 L 261.234375 83.792969 C 261.023438 83.558594 260.800781 83.328125 260.570312 83.097656 Z M 242.167969 75.835938 C 241.84375 76.160156 240.417969 77.515625 238.136719 78.71875 C 238.117188 78.515625 238.09375 78.34375 238.078125 78.21875 C 237.964844 77.429688 237.34375 76.808594 236.554688 76.699219 C 234.0625 76.34375 231.769531 76.457031 229.707031 76.84375 C 230.191406 74.066406 231.414062 70.785156 234.265625 67.9375 C 234.832031 67.371094 239.742188 62.6875 246.992188 63.089844 C 247.082031 65.703125 246.667969 71.339844 242.167969 75.835938 Z M 234.644531 80.101562 C 234.753906 82.855469 234.363281 88.984375 229.480469 93.867188 C 228.941406 94.40625 226.066406 97.109375 221.574219 98.402344 L 217.078125 98.402344 C 217.125 96.984375 217.042969 94.980469 216.519531 92.722656 C 217.359375 89.863281 218.828125 87.363281 220.898438 85.292969 C 221.507812 84.683594 226.820312 79.628906 234.644531 80.101562 Z M 211.722656 79.941406 C 212.660156 79.066406 213.695312 78.296875 214.824219 77.660156 C 215.40625 77.335938 220.296875 74.730469 226.242188 75.871094 C 226.109375 76.585938 226.011719 77.269531 225.953125 77.921875 C 221.796875 79.53125 219.113281 82.011719 218.367188 82.757812 C 216.871094 84.253906 215.644531 85.933594 214.675781 87.773438 C 213.929688 86.375 212.964844 84.976562 211.71875 83.636719 C 211.796875 82.808594 211.855469 81.515625 211.722656 79.941406 Z M 227.210938 72.410156 C 220.058594 70.914062 214.234375 73.882812 213.070312 74.535156 C 212.347656 74.941406 211.660156 75.402344 210.996094 75.890625 C 210.480469 74.042969 209.652344 72.070312 208.355469 70.140625 L 228.234375 70.140625 C 227.832031 70.898438 227.492188 71.660156 227.210938 72.410156 Z M 208.667969 85.628906 C 213.167969 90.128906 213.578125 95.761719 213.492188 98.378906 C 206.246094 98.769531 201.328125 94.097656 200.761719 93.53125 C 196.261719 89.03125 195.851562 83.398438 195.941406 80.78125 C 203.183594 80.382812 208.101562 85.0625 208.667969 85.628906 Z M 201.128906 98.402344 L 180.660156 98.402344 C 181.40625 95.523438 182.816406 93.015625 184.894531 90.9375 C 185.253906 90.574219 188.28125 87.675781 192.933594 86.53125 C 193.648438 89.550781 195.160156 92.996094 198.230469 96.0625 C 198.628906 96.464844 199.625 97.394531 201.128906 98.402344 Z M 195.140625 77.25 C 190.960938 72.8125 190.5625 67.402344 190.648438 64.855469 C 197.902344 64.460938 202.8125 69.140625 203.378906 69.707031 C 207.023438 73.351562 207.984375 77.742188 208.171875 80.671875 C 205.363281 78.816406 200.851562 76.753906 195.140625 77.25 Z M 212.421875 101.988281 L 266.179688 101.988281 L 268.089844 109.019531 L 180.058594 109.019531 L 180.058594 101.988281 Z M 269.066406 112.601562 L 271.582031 121.855469 C 271.714844 122.351562 271.839844 122.847656 271.957031 123.34375 C 268.691406 119.96875 264.128906 117.867188 259.082031 117.867188 C 255.171875 117.867188 251.398438 119.140625 248.300781 121.476562 C 245.296875 119.210938 241.566406 117.867188 237.53125 117.867188 C 233.621094 117.867188 229.847656 119.140625 226.75 121.476562 C 223.746094 119.210938 220.019531 117.867188 215.980469 117.867188 C 212.070312 117.867188 208.296875 119.140625 205.199219 121.476562 C 202.199219 119.210938 198.46875 117.867188 194.429688 117.867188 C 188.558594 117.867188 183.335938 120.710938 180.058594 125.09375 L 180.058594 112.601562 Z M 194.429688 121.449219 C 202.355469 121.449219 208.800781 127.921875 208.800781 135.875 L 208.800781 139.097656 L 180.058594 139.097656 L 180.058594 135.875 C 180.058594 127.921875 186.503906 121.449219 194.429688 121.449219 Z M 98.953125 52.445312 L 257.582031 52.445312 C 259.84375 52.445312 261.996094 53.089844 263.839844 54.214844 L 262.917969 57.605469 C 261.484375 62.875 256.6875 66.558594 251.246094 66.558594 L 250.414062 66.558594 C 250.746094 63.945312 250.53125 61.921875 250.429688 61.199219 C 250.316406 60.410156 249.695312 59.792969 248.910156 59.679688 C 239.371094 58.320312 232.925781 64.207031 231.730469 65.402344 C 231.351562 65.78125 231.003906 66.167969 230.671875 66.558594 L 205.253906 66.558594 C 203.117188 64.664062 197.121094 60.253906 188.734375 61.449219 C 187.945312 61.5625 187.324219 62.179688 187.214844 62.96875 C 187.136719 63.515625 186.992188 64.820312 187.074219 66.558594 L 162.84375 66.558594 C 159.695312 63.289062 155.28125 61.25 150.402344 61.25 L 111.3125 61.25 C 107.050781 61.25 103.121094 62.777344 100.082031 65.371094 C 96.925781 63.855469 94.542969 61.023438 93.613281 57.605469 L 92.695312 54.21875 C 94.539062 53.089844 96.6875 52.445312 98.953125 52.445312 Z M 165.503906 70.140625 L 176.476562 70.140625 L 176.476562 139.097656 L 167.714844 139.097656 L 167.714844 78.617188 C 167.714844 75.539062 166.910156 72.648438 165.503906 70.140625 Z M 164.132812 78.617188 L 164.132812 139.097656 L 83.53125 139.097656 L 97.921875 75.558594 C 99.351562 69.242188 104.859375 64.832031 111.3125 64.832031 L 150.402344 64.832031 C 157.972656 64.832031 164.132812 71.015625 164.132812 78.617188 Z M 70.847656 121.855469 L 87.277344 61.398438 C 87.75 59.667969 88.585938 58.117188 89.683594 56.804688 L 90.15625 58.546875 C 91.257812 62.601562 93.941406 66.019531 97.53125 68.074219 C 96.070312 70.003906 94.996094 72.265625 94.429688 74.769531 L 79.921875 138.816406 C 74.980469 137.816406 70.878906 134.152344 69.402344 129.191406 C 69.710938 126.714844 70.191406 124.265625 70.847656 121.855469 Z M 287.558594 180.027344 C 287.558594 186.726562 282.128906 192.175781 275.457031 192.175781 L 81.074219 192.175781 C 74.402344 192.175781 68.976562 186.726562 68.976562 180.027344 L 68.976562 163.488281 C 71.855469 166.984375 76.210938 169.21875 81.074219 169.21875 L 275.457031 169.21875 C 280.324219 169.21875 284.679688 166.984375 287.558594 163.488281 Z M 287.558594 153.488281 C 287.558594 160.1875 282.128906 165.636719 275.457031 165.636719 L 81.074219 165.636719 C 74.402344 165.636719 68.976562 160.1875 68.976562 153.488281 L 68.976562 136.027344 C 72.207031 140.125 77.199219 142.679688 82.636719 142.679688 L 273.898438 142.679688 C 279.335938 142.679688 284.324219 140.125 287.558594 136.027344 Z M 287.558594 153.488281 " fill-opacity="1" fill-rule="nonzero"/></g><g fill="#000000" fill-opacity="1"><g transform="translate(12.226012, 309.197023)"><g><path d="M 19.296875 -63.34375 C 27.710938 -63.34375 33.539062 -61.953125 36.78125 -59.171875 C 40.03125 -56.398438 41.65625 -52.03125 41.65625 -46.0625 C 41.65625 -40.101562 40.472656 -35.609375 38.109375 -32.578125 C 41.566406 -29.722656 43.296875 -24.910156 43.296875 -18.140625 C 43.296875 -5.171875 35.847656 1.3125 20.953125 1.3125 C 19.191406 1.3125 13.445312 0.875 3.71875 0 L 3.71875 -62.03125 C 9.4375 -62.90625 14.628906 -63.34375 19.296875 -63.34375 Z M 29.234375 -10.796875 C 30.304688 -12.015625 30.84375 -14.492188 30.84375 -18.234375 C 30.84375 -21.972656 30.429688 -24.222656 29.609375 -24.984375 C 28.785156 -25.753906 26.65625 -26.140625 23.21875 -26.140625 C 19.78125 -26.140625 17.609375 -26.082031 16.703125 -25.96875 C 15.796875 -25.863281 15.34375 -25.539062 15.34375 -25 L 15.34375 -10.234375 C 15.34375 -9.628906 15.710938 -9.269531 16.453125 -9.15625 C 17.191406 -9.039062 19.238281 -8.984375 22.59375 -8.984375 C 25.945312 -8.984375 28.160156 -9.585938 29.234375 -10.796875 Z M 16.828125 -36.375 C 21.609375 -36.375 24.863281 -36.953125 26.59375 -38.109375 C 28.332031 -39.265625 29.203125 -41.820312 29.203125 -45.78125 C 29.203125 -48.03125 28.71875 -49.882812 27.75 -51.34375 C 26.789062 -52.800781 25.757812 -53.53125 24.65625 -53.53125 C 19.988281 -53.53125 17.160156 -53.226562 16.171875 -52.625 C 15.835938 -52.40625 15.5625 -52.078125 15.34375 -51.640625 L 15.34375 -37.703125 C 15.34375 -37.035156 15.453125 -36.648438 15.671875 -36.546875 C 16.054688 -36.429688 16.441406 -36.375 16.828125 -36.375 Z M 16.828125 -36.375 "/></g></g></g><g fill="#000000" fill-opacity="1"><g transform="translate(58.41561, 309.197023)"><g><path d="M 18.71875 1.3125 C 12.832031 1.3125 8.75 -0.28125 6.46875 -3.46875 C 4.1875 -6.65625 3.046875 -12.375 3.046875 -20.625 C 3.046875 -26.5625 3.566406 -31.082031 4.609375 -34.1875 C 5.660156 -37.289062 7.242188 -39.40625 9.359375 -40.53125 C 11.472656 -41.664062 14.59375 -42.234375 18.71875 -42.234375 C 22.84375 -42.234375 25.960938 -41.65625 28.078125 -40.5 C 30.203125 -39.34375 31.757812 -37.195312 32.75 -34.0625 C 33.738281 -30.925781 34.234375 -26.472656 34.234375 -20.703125 C 34.234375 -20.367188 34.234375 -20.035156 34.234375 -19.703125 C 34.234375 -19.378906 33.585938 -19.078125 32.296875 -18.796875 C 31.003906 -18.523438 29.445312 -18.390625 27.625 -18.390625 L 14.9375 -18.390625 C 15.039062 -11.960938 15.503906 -8.304688 16.328125 -7.421875 C 16.828125 -6.984375 17.625 -6.765625 18.71875 -6.765625 C 25.925781 -6.765625 30.847656 -7.125 33.484375 -7.84375 C 33.597656 -7.894531 33.679688 -7.921875 33.734375 -7.921875 C 34.117188 -8.023438 34.4375 -7.800781 34.6875 -7.25 C 34.9375 -6.707031 35.0625 -5.414062 35.0625 -3.375 C 35.0625 -1.34375 34.617188 -0.21875 33.734375 0 C 31.484375 0.875 26.476562 1.3125 18.71875 1.3125 Z M 14.9375 -31.421875 L 14.9375 -25 L 23.265625 -25 C 23.046875 -31.375 22.410156 -34.5625 21.359375 -34.5625 C 19.492188 -34.5625 17.957031 -34.285156 16.75 -33.734375 C 15.539062 -33.179688 14.9375 -32.410156 14.9375 -31.421875 Z M 14.9375 -31.421875 "/></g></g></g><g fill="#000000" fill-opacity="1"><g transform="translate(95.862171, 309.197023)"><g><path d="M 24.90625 -42.234375 C 28.976562 -42.234375 31.960938 -40.96875 33.859375 -38.4375 C 35.753906 -35.90625 36.703125 -31.453125 36.703125 -25.078125 L 36.703125 0 C 36.703125 0.332031 36.675781 0.550781 36.625 0.65625 C 36.34375 1.09375 35.28125 1.3125 33.4375 1.3125 C 31.601562 1.3125 29.722656 1.175781 27.796875 0.90625 C 25.867188 0.632812 24.90625 0.332031 24.90625 0 L 24.828125 -25.078125 C 24.828125 -31.234375 24.390625 -34.3125 23.515625 -34.3125 C 21.523438 -34.3125 18.882812 -33.320312 15.59375 -31.34375 L 15.59375 0 C 15.59375 0.332031 15.5625 0.550781 15.5 0.65625 C 15.226562 1.09375 14.171875 1.3125 12.328125 1.3125 C 10.484375 1.3125 8.585938 1.175781 6.640625 0.90625 C 4.691406 0.632812 3.71875 0.332031 3.71875 0 L 3.71875 -40.90625 C 3.71875 -41.789062 4.816406 -42.234375 7.015625 -42.234375 C 10.472656 -42.234375 12.453125 -41.789062 12.953125 -40.90625 C 12.953125 -40.800781 12.976562 -40.75 13.03125 -40.75 L 14.59375 -37.609375 C 19.21875 -40.691406 22.65625 -42.234375 24.90625 -42.234375 Z M 24.90625 -42.234375 "/></g></g></g><g fill="#000000" fill-opacity="1"><g transform="translate(136.113115, 309.197023)"><g><path d="M 7.671875 -34.3125 L 1.078125 -34.3125 C 0.410156 -34.3125 0.0351562 -34.460938 -0.046875 -34.765625 C -0.128906 -35.066406 -0.171875 -35.410156 -0.171875 -35.796875 C -0.171875 -38.160156 0.242188 -39.425781 1.078125 -39.59375 L 7.671875 -40.90625 L 12.296875 -50.234375 C 12.953125 -51.054688 14.210938 -51.46875 16.078125 -51.46875 C 16.578125 -51.46875 17.046875 -50.476562 17.484375 -48.5 C 17.921875 -46.519531 18.390625 -43.988281 18.890625 -40.90625 L 26.8125 -40.90625 C 27.6875 -40.90625 28.125 -39.804688 28.125 -37.609375 C 28.125 -35.410156 27.6875 -34.3125 26.8125 -34.3125 L 18.8125 -34.3125 L 18.8125 -8.078125 L 20.125 1.234375 L 20.125 1.3125 C 20.175781 1.644531 20.175781 1.867188 20.125 1.984375 C 19.851562 2.421875 18.476562 2.640625 16 2.640625 C 13.53125 2.640625 12.046875 2.144531 11.546875 1.15625 L 7.671875 -6.6875 Z M 7.671875 -34.3125 "/></g></g></g><g fill="#000000" fill-opacity="1"><g transform="translate(163.909355, 309.197023)"><g><path d="M 3.046875 -20.625 C 3.046875 -26.613281 3.566406 -31.144531 4.609375 -34.21875 C 5.660156 -37.300781 7.3125 -39.40625 9.5625 -40.53125 C 11.820312 -41.664062 15.148438 -42.234375 19.546875 -42.234375 C 23.941406 -42.234375 27.265625 -41.664062 29.515625 -40.53125 C 31.773438 -39.40625 33.425781 -37.300781 34.46875 -34.21875 C 35.519531 -31.144531 36.046875 -26.613281 36.046875 -20.625 C 36.046875 -12.375 34.863281 -6.65625 32.5 -3.46875 C 30.132812 -0.28125 25.816406 1.3125 19.546875 1.3125 C 13.273438 1.3125 8.957031 -0.28125 6.59375 -3.46875 C 4.226562 -6.65625 3.046875 -12.375 3.046875 -20.625 Z M 14.265625 -20.625 C 14.265625 -11.382812 15.144531 -6.765625 16.90625 -6.765625 C 19.320312 -6.765625 21.109375 -7.148438 22.265625 -7.921875 C 22.867188 -8.359375 23.285156 -9.15625 23.515625 -10.3125 C 23.953125 -12.625 24.171875 -16.0625 24.171875 -20.625 C 24.171875 -29.75 23.289062 -34.3125 21.53125 -34.3125 C 18.226562 -34.3125 16.191406 -33.554688 15.421875 -32.046875 C 14.648438 -30.535156 14.265625 -26.726562 14.265625 -20.625 Z M 14.265625 -20.625 "/></g></g></g><g fill="#000000" fill-opacity="1"><g transform="translate(203.005557, 309.197023)"><g><path d="M 3.953125 -6.015625 C 2.804688 -7.453125 2.234375 -8.539062 2.234375 -9.28125 C 2.234375 -10.019531 2.878906 -11.035156 4.171875 -12.328125 C 5.460938 -13.617188 6.3125 -14.316406 6.71875 -14.421875 C 7.132812 -14.535156 7.535156 -14.59375 7.921875 -14.59375 C 8.304688 -14.59375 8.9375 -14.347656 9.8125 -13.859375 C 13.882812 -10.671875 17.457031 -9.078125 20.53125 -9.078125 C 23.613281 -9.078125 25.625 -9.789062 26.5625 -11.21875 C 27.5 -12.644531 27.96875 -14.515625 27.96875 -16.828125 C 27.96875 -19.140625 27.140625 -21.007812 25.484375 -22.4375 C 23.835938 -23.863281 21.128906 -25.59375 17.359375 -27.625 C 13.597656 -29.664062 10.3125 -32.304688 7.5 -35.546875 C 4.695312 -38.796875 3.296875 -42.148438 3.296875 -45.609375 C 3.296875 -51.773438 4.90625 -56.269531 8.125 -59.09375 C 11.34375 -61.925781 16.054688 -63.34375 22.265625 -63.34375 C 26.066406 -63.34375 29.78125 -62.4375 33.40625 -60.625 C 35.332031 -59.851562 36.238281 -59.054688 36.125 -58.234375 C 36.070312 -57.898438 36.019531 -57.40625 35.96875 -56.75 C 34.914062 -53.78125 34.117188 -52.078125 33.578125 -51.640625 C 33.410156 -51.523438 33.035156 -51.46875 32.453125 -51.46875 C 31.878906 -51.46875 30.351562 -51.921875 27.875 -52.828125 C 25.40625 -53.734375 23.300781 -54.1875 21.5625 -54.1875 C 19.832031 -54.1875 18.390625 -53.582031 17.234375 -52.375 C 16.078125 -51.164062 15.5 -49.460938 15.5 -47.265625 C 15.5 -45.066406 16.488281 -43.070312 18.46875 -41.28125 C 20.457031 -39.5 23.507812 -37.644531 27.625 -35.71875 C 31.976562 -33.457031 35.238281 -31.117188 37.40625 -28.703125 C 39.582031 -26.285156 40.671875 -23.039062 40.671875 -18.96875 C 40.671875 -5.445312 34.953125 1.3125 23.515625 1.3125 C 14.984375 1.3125 8.460938 -1.128906 3.953125 -6.015625 Z M 3.953125 -6.015625 "/></g></g></g><g fill="#000000" fill-opacity="1"><g transform="translate(246.060867, 309.197023)"><g><path d="M 3.875 0 L 3.875 -40.90625 C 3.875 -41.789062 4.863281 -42.234375 6.84375 -42.234375 C 8.820312 -42.234375 10.691406 -42.09375 12.453125 -41.8125 C 14.210938 -41.539062 15.09375 -41.238281 15.09375 -40.90625 L 15.09375 0 C 15.09375 0.332031 15.066406 0.550781 15.015625 0.65625 C 14.734375 1.09375 13.6875 1.3125 11.875 1.3125 C 10.0625 1.3125 8.273438 1.175781 6.515625 0.90625 C 4.753906 0.632812 3.875 0.332031 3.875 0 Z M 8.984375 -51.46875 C 5.023438 -51.46875 3.046875 -53.445312 3.046875 -57.40625 C 3.046875 -61.363281 5.023438 -63.34375 8.984375 -63.34375 C 12.953125 -63.34375 14.9375 -61.363281 14.9375 -57.40625 C 14.9375 -53.445312 12.953125 -51.46875 8.984375 -51.46875 Z M 8.984375 -51.46875 "/></g></g></g><g fill="#000000" fill-opacity="1"><g transform="translate(264.784148, 309.197023)"><g><path d="M 7.671875 -34.3125 L 1.078125 -34.3125 C 0.410156 -34.3125 0.0351562 -34.460938 -0.046875 -34.765625 C -0.128906 -35.066406 -0.171875 -35.410156 -0.171875 -35.796875 C -0.171875 -38.160156 0.242188 -39.425781 1.078125 -39.59375 L 7.671875 -40.90625 L 12.296875 -50.234375 C 12.953125 -51.054688 14.210938 -51.46875 16.078125 -51.46875 C 16.578125 -51.46875 17.046875 -50.476562 17.484375 -48.5 C 17.921875 -46.519531 18.390625 -43.988281 18.890625 -40.90625 L 26.8125 -40.90625 C 27.6875 -40.90625 28.125 -39.804688 28.125 -37.609375 C 28.125 -35.410156 27.6875 -34.3125 26.8125 -34.3125 L 18.8125 -34.3125 L 18.8125 -8.078125 L 20.125 1.234375 L 20.125 1.3125 C 20.175781 1.644531 20.175781 1.867188 20.125 1.984375 C 19.851562 2.421875 18.476562 2.640625 16 2.640625 C 13.53125 2.640625 12.046875 2.144531 11.546875 1.15625 L 7.671875 -6.6875 Z M 7.671875 -34.3125 "/></g></g></g><g fill="#000000" fill-opacity="1"><g transform="translate(292.580388, 309.197023)"><g><path d="M 18.71875 1.3125 C 12.832031 1.3125 8.75 -0.28125 6.46875 -3.46875 C 4.1875 -6.65625 3.046875 -12.375 3.046875 -20.625 C 3.046875 -26.5625 3.566406 -31.082031 4.609375 -34.1875 C 5.660156 -37.289062 7.242188 -39.40625 9.359375 -40.53125 C 11.472656 -41.664062 14.59375 -42.234375 18.71875 -42.234375 C 22.84375 -42.234375 25.960938 -41.65625 28.078125 -40.5 C 30.203125 -39.34375 31.757812 -37.195312 32.75 -34.0625 C 33.738281 -30.925781 34.234375 -26.472656 34.234375 -20.703125 C 34.234375 -20.367188 34.234375 -20.035156 34.234375 -19.703125 C 34.234375 -19.378906 33.585938 -19.078125 32.296875 -18.796875 C 31.003906 -18.523438 29.445312 -18.390625 27.625 -18.390625 L 14.9375 -18.390625 C 15.039062 -11.960938 15.503906 -8.304688 16.328125 -7.421875 C 16.828125 -6.984375 17.625 -6.765625 18.71875 -6.765625 C 25.925781 -6.765625 30.847656 -7.125 33.484375 -7.84375 C 33.597656 -7.894531 33.679688 -7.921875 33.734375 -7.921875 C 34.117188 -8.023438 34.4375 -7.800781 34.6875 -7.25 C 34.9375 -6.707031 35.0625 -5.414062 35.0625 -3.375 C 35.0625 -1.34375 34.617188 -0.21875 33.734375 0 C 31.484375 0.875 26.476562 1.3125 18.71875 1.3125 Z M 14.9375 -31.421875 L 14.9375 -25 L 23.265625 -25 C 23.046875 -31.375 22.410156 -34.5625 21.359375 -34.5625 C 19.492188 -34.5625 17.957031 -34.285156 16.75 -33.734375 C 15.539062 -33.179688 14.9375 -32.410156 14.9375 -31.421875 Z M 14.9375 -31.421875 "/></g></g></g><g fill="#000000" fill-opacity="1"><g transform="translate(330.026931, 309.197023)"><g><path d="M 26.640625 -31.171875 L 26.140625 -31.34375 L 23.015625 -32.90625 C 20.648438 -33.84375 18.613281 -34.3125 16.90625 -34.3125 C 14.4375 -34.207031 13.203125 -33.023438 13.203125 -30.765625 C 13.203125 -29.890625 13.679688 -29.175781 14.640625 -28.625 C 15.597656 -28.070312 16.378906 -27.644531 16.984375 -27.34375 C 17.597656 -27.039062 18.476562 -26.613281 19.625 -26.0625 C 23.75 -24.300781 26.816406 -22.347656 28.828125 -20.203125 C 30.835938 -18.054688 31.84375 -15.941406 31.84375 -13.859375 C 31.84375 -9.296875 30.628906 -5.625 28.203125 -2.84375 C 25.785156 -0.0703125 22.5 1.3125 18.34375 1.3125 C 14.195312 1.3125 10.941406 0.765625 8.578125 -0.328125 C 6.210938 -1.429688 4.234375 -3 2.640625 -5.03125 C 2.421875 -5.144531 2.3125 -5.3125 2.3125 -5.53125 C 2.3125 -5.75 2.351562 -6.019531 2.4375 -6.34375 C 2.519531 -6.675781 3.164062 -7.570312 4.375 -9.03125 C 5.582031 -10.488281 6.546875 -11.21875 7.265625 -11.21875 C 7.484375 -11.21875 7.703125 -11.109375 7.921875 -10.890625 C 10.835938 -8.578125 13.671875 -7.421875 16.421875 -7.421875 C 17.953125 -7.421875 19.101562 -7.859375 19.875 -8.734375 C 20.644531 -9.617188 21.03125 -10.582031 21.03125 -11.625 C 21.03125 -12.675781 20.585938 -13.53125 19.703125 -14.1875 C 18.828125 -14.84375 17.742188 -15.488281 16.453125 -16.125 C 15.160156 -16.757812 14.457031 -17.101562 14.34375 -17.15625 C 14.238281 -17.207031 14.085938 -17.285156 13.890625 -17.390625 C 13.703125 -17.503906 13.523438 -17.59375 13.359375 -17.65625 C 10.554688 -19.03125 8.175781 -20.75 6.21875 -22.8125 C 4.269531 -24.875 3.296875 -27.164062 3.296875 -29.6875 C 3.296875 -34.09375 4.4375 -37.285156 6.71875 -39.265625 C 9 -41.242188 12.613281 -42.234375 17.5625 -42.234375 C 19.4375 -42.234375 21.226562 -42.015625 22.9375 -41.578125 C 25.238281 -40.972656 26.882812 -40.253906 27.875 -39.421875 L 27.96875 -39.421875 C 28.40625 -39.148438 28.664062 -38.820312 28.75 -38.4375 C 28.832031 -38.050781 28.789062 -37.226562 28.625 -35.96875 C 28.070312 -32.769531 27.410156 -31.171875 26.640625 -31.171875 Z M 26.640625 -31.171875 "/></g></g></g><g fill="#000000" fill-opacity="1"><g transform="translate(95.13913, 366.1751)"><g><path d="M 10.96875 0 L 2.984375 0 L 2.984375 -26.890625 L 10.203125 -26.890625 C 13.085938 -26.890625 15.289062 -26.097656 16.8125 -24.515625 C 18.34375 -22.929688 19.109375 -20.820312 19.109375 -18.1875 L 19.109375 -7.671875 C 19.109375 -2.554688 16.394531 0 10.96875 0 Z M 16.953125 -7.28125 L 16.953125 -18.5625 C 16.953125 -20.707031 16.3125 -22.304688 15.03125 -23.359375 C 13.757812 -24.410156 12.28125 -24.9375 10.59375 -24.9375 L 5.140625 -24.9375 L 5.140625 -1.921875 L 10.359375 -1.921875 C 14.753906 -1.921875 16.953125 -3.707031 16.953125 -7.28125 Z M 16.953125 -7.28125 "/></g></g></g><g fill="#000000" fill-opacity="1"><g transform="translate(131.049082, 366.1751)"><g><path d="M 15.734375 0 L 2.984375 0 L 2.984375 -26.859375 L 15.796875 -26.859375 L 15.796875 -24.859375 L 5.140625 -24.859375 L 5.140625 -15.84375 L 12.46875 -15.84375 L 11.734375 -13.734375 L 5.140625 -13.734375 L 5.140625 -1.921875 L 15.734375 -1.921875 Z M 15.734375 0 "/></g></g></g><g fill="#000000" fill-opacity="1"><g transform="translate(162.700741, 366.1751)"><g><path d="M 1.421875 -6.828125 L 3.609375 -6.828125 C 3.734375 -5.472656 4.414062 -4.269531 5.65625 -3.21875 C 6.894531 -2.175781 8.484375 -1.65625 10.421875 -1.65625 C 12.367188 -1.65625 14.007812 -2.09375 15.34375 -2.96875 C 16.675781 -3.851562 17.34375 -5.253906 17.34375 -7.171875 C 17.34375 -8.347656 16.960938 -9.351562 16.203125 -10.1875 C 15.453125 -11.019531 14.515625 -11.648438 13.390625 -12.078125 C 12.265625 -12.515625 11.039062 -12.984375 9.71875 -13.484375 C 8.40625 -13.984375 7.1875 -14.472656 6.0625 -14.953125 C 4.9375 -15.441406 3.992188 -16.171875 3.234375 -17.140625 C 2.484375 -18.117188 2.109375 -19.285156 2.109375 -20.640625 C 2.109375 -22.429688 2.847656 -23.976562 4.328125 -25.28125 C 5.816406 -26.582031 7.953125 -27.234375 10.734375 -27.234375 C 12.859375 -27.234375 14.726562 -26.847656 16.34375 -26.078125 C 16.34375 -26.023438 16.125 -25.347656 15.6875 -24.046875 C 14.226562 -24.785156 12.554688 -25.15625 10.671875 -25.15625 C 8.796875 -25.15625 7.269531 -24.742188 6.09375 -23.921875 C 4.914062 -23.109375 4.328125 -21.972656 4.328125 -20.515625 C 4.328125 -18.878906 5.335938 -17.601562 7.359375 -16.6875 C 8.253906 -16.28125 9.242188 -15.894531 10.328125 -15.53125 C 11.421875 -15.175781 12.515625 -14.78125 13.609375 -14.34375 C 14.710938 -13.90625 15.710938 -13.410156 16.609375 -12.859375 C 17.503906 -12.316406 18.234375 -11.570312 18.796875 -10.625 C 19.359375 -9.675781 19.640625 -8.585938 19.640625 -7.359375 C 19.640625 -5.015625 18.890625 -3.128906 17.390625 -1.703125 C 15.898438 -0.285156 13.675781 0.421875 10.71875 0.421875 C 7.769531 0.421875 5.492188 -0.3125 3.890625 -1.78125 C 2.296875 -3.25 1.472656 -4.929688 1.421875 -6.828125 Z M 1.421875 -6.828125 "/></g></g></g><g fill="#000000" fill-opacity="1"><g transform="translate(198.035245, 366.1751)"><g><path d="M 7.25 0 L 5.109375 0 L 5.109375 -24.890625 L 2.53125 -24.96875 L 2.53125 -26.859375 L 7.25 -26.859375 Z M 7.25 0 "/></g></g></g><g fill="#000000" fill-opacity="1"><g transform="translate(221.975959, 366.1751)"><g><path d="M 18.265625 0 L 16.6875 0 L 16.15625 -1.578125 C 14.820312 -0.265625 13 0.390625 10.6875 0.390625 C 8.375 0.390625 6.429688 -0.25 4.859375 -1.53125 C 3.285156 -2.8125 2.5 -4.71875 2.5 -7.25 L 2.5 -19.296875 C 2.5 -22.566406 3.609375 -24.878906 5.828125 -26.234375 C 6.984375 -26.878906 8.351562 -27.203125 9.9375 -27.203125 C 11.90625 -27.203125 13.71875 -26.78125 15.375 -25.9375 L 14.765625 -24.46875 C 13.304688 -25.007812 11.925781 -25.28125 10.625 -25.28125 C 6.632812 -25.28125 4.640625 -23.398438 4.640625 -19.640625 L 4.640625 -7.171875 C 4.640625 -5.460938 5.195312 -4.117188 6.3125 -3.140625 C 7.425781 -2.171875 8.84375 -1.6875 10.5625 -1.6875 C 12.289062 -1.6875 13.664062 -2.1875 14.6875 -3.1875 C 15.707031 -4.1875 16.21875 -5.503906 16.21875 -7.140625 L 16.21875 -9.390625 L 13.6875 -9.390625 L 12.96875 -11.515625 L 18.265625 -11.515625 Z M 18.265625 0 "/></g></g></g><g fill="#000000" fill-opacity="1"><g transform="translate(256.389752, 366.1751)"><g><path d="M 21.859375 0 L 19.71875 0 L 5.140625 -22.90625 L 5.140625 0 L 2.984375 0 L 2.984375 -26.859375 L 5.140625 -26.859375 L 19.71875 -3.953125 L 19.71875 -26.859375 L 21.859375 -26.859375 Z M 21.859375 0 "/></g></g></g></svg>