<svg xmlns="http://www.w3.org/2000/svg" xmlns:xlink="http://www.w3.org/1999/xlink" width="1000" zoomAndPan="magnify" viewBox="0 0 750 187.499995" height="250" preserveAspectRatio="xMidYMid meet" version="1.0"><defs><g/><clipPath id="c6f49ee43d"><path d="M 0.996094 0 L 188 0 L 188 187 L 0.996094 187 Z M 0.996094 0 " clip-rule="nonzero"/></clipPath><clipPath id="17632b2d25"><path d="M 94.496094 0 C 42.859375 0 0.996094 41.863281 0.996094 93.5 C 0.996094 145.140625 42.859375 187 94.496094 187 C 146.136719 187 188 145.140625 188 93.5 C 188 41.863281 146.136719 0 94.496094 0 Z M 94.496094 0 " clip-rule="nonzero"/></clipPath><clipPath id="b1391c79c3"><path d="M 94.496094 0 L 281.5 0 L 281.5 187 L 94.496094 187 Z M 94.496094 0 " clip-rule="nonzero"/></clipPath><clipPath id="2882d65494"><path d="M 188 0 C 136.359375 0 94.496094 41.863281 94.496094 93.5 C 94.496094 145.140625 136.359375 187 188 187 C 239.636719 187 281.5 145.140625 281.5 93.5 C 281.5 41.863281 239.636719 0 188 0 Z M 188 0 " clip-rule="nonzero"/></clipPath><clipPath id="a22a8d9725"><path d="M 32.984375 22.070312 L 252.152344 22.070312 L 252.152344 164.9375 L 32.984375 164.9375 Z M 32.984375 22.070312 " clip-rule="nonzero"/></clipPath></defs><g clip-path="url(#c6f49ee43d)"><g clip-path="url(#17632b2d25)"><path fill="#bfcbc3" d="M 0.996094 0 L 188 0 L 188 187 L 0.996094 187 Z M 0.996094 0 " fill-opacity="1" fill-rule="nonzero"/></g></g><g clip-path="url(#b1391c79c3)"><g clip-path="url(#2882d65494)"><path fill="#e8ddb5" d="M 94.496094 0 L 281.5 0 L 281.5 187 L 94.496094 187 Z M 94.496094 0 " fill-opacity="1" fill-rule="nonzero"/></g></g><g clip-path="url(#a22a8d9725)"><path fill="#000000" d="M 99.089844 78.160156 C 97.828125 77.554688 96.363281 77.511719 94.859375 78.042969 C 92.347656 78.929688 89.945312 81.34375 88.4375 84.507812 C 85.945312 89.734375 86.710938 95.136719 90.1875 96.808594 C 90.863281 97.132812 91.597656 97.296875 92.363281 97.296875 C 93.027344 97.296875 93.71875 97.175781 94.414062 96.929688 C 96.929688 96.042969 99.332031 93.625 100.839844 90.464844 C 103.332031 85.238281 102.5625 79.832031 99.089844 78.160156 Z M 97.699219 88.964844 C 96.597656 91.273438 94.898438 93.066406 93.261719 93.644531 C 92.640625 93.863281 92.113281 93.871094 91.695312 93.667969 C 90.246094 92.972656 89.886719 89.546875 91.578125 86.007812 C 92.679688 83.695312 94.378906 81.902344 96.015625 81.328125 C 96.339844 81.210938 96.636719 81.15625 96.90625 81.15625 C 97.15625 81.15625 97.382812 81.203125 97.582031 81.300781 C 99.03125 81.996094 99.386719 85.421875 97.699219 88.964844 Z M 86.96875 75.316406 C 87.5 75.417969 88.058594 75.46875 88.636719 75.46875 C 90.765625 75.46875 93.152344 74.785156 95.367188 73.503906 C 100.363281 70.605469 102.769531 65.710938 100.847656 62.359375 C 100.144531 61.140625 98.957031 60.273438 97.414062 59.859375 C 94.839844 59.171875 91.503906 59.804688 88.488281 61.554688 C 86.085938 62.945312 84.285156 64.800781 83.273438 66.722656 C 82.441406 65.8125 81.515625 65.089844 80.546875 64.617188 C 79.113281 63.917969 77.65625 63.792969 76.332031 64.253906 C 72.691406 65.519531 71.316406 70.800781 73.199219 76.277344 C 74.339844 79.59375 76.453125 82.265625 78.851562 83.433594 C 79.71875 83.855469 80.59375 84.070312 81.445312 84.070312 C 82 84.070312 82.542969 83.976562 83.066406 83.796875 C 85.90625 82.808594 87.359375 79.378906 86.96875 75.316406 Z M 81.925781 80.507812 C 81.488281 80.660156 80.964844 80.589844 80.375 80.300781 C 78.8125 79.542969 77.324219 77.566406 76.488281 75.144531 C 75.210938 71.433594 75.953125 68.070312 77.472656 67.542969 C 77.625 67.492188 77.785156 67.464844 77.953125 67.464844 C 78.277344 67.464844 78.636719 67.558594 79.023438 67.75 C 80.585938 68.507812 82.074219 70.484375 82.90625 72.90625 C 84.183594 76.617188 83.441406 79.980469 81.925781 80.507812 Z M 86.023438 70.957031 C 85.21875 69.558594 86.847656 66.53125 90.230469 64.566406 C 91.90625 63.59375 93.703125 63.066406 95.199219 63.066406 C 95.671875 63.066406 96.113281 63.117188 96.511719 63.222656 C 97.152344 63.394531 97.597656 63.6875 97.832031 64.097656 C 98.636719 65.496094 97.007812 68.527344 93.621094 70.488281 C 91.421875 71.765625 89.011719 72.28125 87.339844 71.832031 C 86.699219 71.660156 86.257812 71.367188 86.023438 70.957031 Z M 250.210938 92.148438 L 234.257812 33.386719 C 232.457031 26.75 226.417969 22.117188 219.570312 22.117188 L 65.566406 22.117188 C 58.71875 22.117188 52.679688 26.75 50.878906 33.386719 L 34.925781 92.148438 C 33.636719 96.886719 32.984375 101.78125 32.984375 106.695312 L 32.984375 149.601562 C 32.984375 158.03125 39.816406 164.890625 48.210938 164.890625 L 236.925781 164.890625 C 245.320312 164.890625 252.152344 158.03125 252.152344 149.601562 L 252.152344 106.695312 C 252.152344 101.78125 251.5 96.886719 250.210938 92.148438 Z M 228.566406 29.835938 C 229.632812 31.109375 230.445312 32.621094 230.902344 34.300781 L 246.855469 93.058594 C 247.492188 95.402344 247.957031 97.785156 248.257812 100.1875 C 246.867188 104.871094 243.066406 108.371094 238.457031 109.457031 L 238.457031 106.695312 C 238.457031 106.691406 238.457031 106.691406 238.457031 106.6875 C 238.457031 106.683594 238.457031 106.679688 238.457031 106.675781 C 238.453125 101.769531 237.800781 96.878906 236.515625 92.148438 L 222.332031 39.890625 C 225.082031 37.890625 227.171875 34.980469 228.109375 31.527344 Z M 213.160156 95.109375 C 215.464844 93.523438 218.199219 92.664062 221.027344 92.664062 C 228.714844 92.664062 234.96875 98.949219 234.976562 106.675781 C 234.976562 106.679688 234.976562 106.6875 234.976562 106.695312 L 234.976562 109.820312 L 217.535156 109.820312 L 217.535156 106.6875 C 217.535156 102.25 215.878906 98.195312 213.160156 95.109375 Z M 192.238281 95.109375 C 194.542969 93.523438 197.277344 92.664062 200.105469 92.664062 C 207.796875 92.664062 214.054688 98.957031 214.054688 106.6875 L 214.054688 109.820312 L 196.613281 109.820312 L 196.613281 106.6875 C 196.613281 102.25 194.957031 98.195312 192.238281 95.109375 Z M 171.316406 95.109375 C 173.621094 93.523438 176.355469 92.664062 179.183594 92.664062 C 186.875 92.664062 193.132812 98.957031 193.132812 106.6875 L 193.132812 109.820312 L 175.691406 109.820312 L 175.691406 106.6875 C 175.691406 102.25 174.035156 98.195312 171.316406 95.109375 Z M 147.289062 52.691406 C 147.769531 52.214844 150.152344 49.976562 153.882812 48.753906 C 154.535156 49.851562 155.335938 50.941406 156.308594 51.992188 C 156.242188 52.738281 156.1875 53.882812 156.28125 55.277344 C 150.808594 56.527344 147.25 59.839844 146.542969 60.546875 C 145.710938 61.378906 144.96875 62.285156 144.308594 63.246094 L 144.308594 56.871094 C 145.0625 55.328125 146.0625 53.921875 147.289062 52.691406 Z M 144.308594 50.777344 L 144.308594 42.796875 L 151.566406 42.796875 C 151.757812 43.691406 152.019531 44.628906 152.375 45.585938 C 148.125 47.09375 145.394531 49.667969 144.832031 50.230469 C 144.652344 50.410156 144.480469 50.59375 144.308594 50.777344 Z M 204.640625 58.3125 C 203.3125 57.714844 201.929688 57.257812 200.503906 56.949219 C 200.621094 56.25 200.695312 55.582031 200.738281 54.960938 C 202.074219 54.394531 203.226562 53.742188 204.171875 53.117188 C 204.128906 54.425781 204.195312 56.253906 204.640625 58.3125 Z M 203.429688 61.585938 C 204.515625 62.09375 205.542969 62.71875 206.503906 63.441406 C 207.324219 64.984375 208.421875 66.535156 209.878906 67.992188 C 210.269531 68.382812 211.234375 69.289062 212.695312 70.265625 L 192.410156 70.265625 C 193.664062 69.367188 194.46875 68.597656 194.746094 68.320312 C 197.300781 65.765625 198.804688 62.957031 199.675781 60.332031 C 200.972656 60.605469 202.230469 61.023438 203.429688 61.585938 Z M 212.339844 65.53125 C 207.96875 61.15625 207.570312 55.679688 207.65625 53.136719 C 214.695312 52.753906 219.460938 57.300781 220.011719 57.851562 C 224.382812 62.222656 224.78125 67.699219 224.695312 70.242188 C 217.660156 70.625 212.886719 66.082031 212.339844 65.53125 Z M 222.472656 55.390625 C 221.414062 54.328125 216.097656 49.464844 208.132812 49.636719 C 210.039062 47.398438 211.1875 45.015625 211.863281 42.796875 L 213.417969 42.796875 C 215.445312 42.796875 217.402344 42.386719 219.199219 41.640625 L 223.117188 56.066406 C 222.910156 55.839844 222.695312 55.613281 222.472656 55.390625 Z M 204.605469 48.332031 C 204.292969 48.648438 202.90625 49.964844 200.695312 51.132812 C 200.671875 50.9375 200.652344 50.769531 200.632812 50.648438 C 200.523438 49.882812 199.921875 49.28125 199.15625 49.171875 C 196.734375 48.824219 194.507812 48.933594 192.507812 49.3125 C 192.976562 46.613281 194.167969 43.421875 196.933594 40.65625 C 197.480469 40.105469 202.25 35.554688 209.289062 35.941406 C 209.375 38.484375 208.976562 43.960938 204.605469 48.332031 Z M 197.300781 52.480469 C 197.410156 55.15625 197.027344 61.113281 192.289062 65.859375 C 191.765625 66.378906 188.972656 69.007812 184.613281 70.265625 L 180.25 70.265625 C 180.292969 68.890625 180.214844 66.9375 179.703125 64.746094 C 180.519531 61.96875 181.945312 59.535156 183.957031 57.523438 C 184.550781 56.929688 189.703125 52.019531 197.300781 52.480469 Z M 175.050781 52.320312 C 175.957031 51.472656 176.964844 50.722656 178.0625 50.105469 C 178.625 49.789062 183.371094 47.257812 189.144531 48.367188 C 189.015625 49.058594 188.921875 49.726562 188.863281 50.359375 C 184.832031 51.925781 182.222656 54.335938 181.496094 55.0625 C 180.046875 56.515625 178.855469 58.148438 177.914062 59.933594 C 177.191406 58.578125 176.253906 57.214844 175.042969 55.914062 C 175.121094 55.109375 175.179688 53.855469 175.050781 52.320312 Z M 190.085938 45.003906 C 183.140625 43.550781 177.488281 46.433594 176.355469 47.070312 C 175.65625 47.464844 174.988281 47.910156 174.34375 48.386719 C 173.84375 46.589844 173.039062 44.671875 171.777344 42.796875 L 191.078125 42.796875 C 190.6875 43.535156 190.359375 44.273438 190.085938 45.003906 Z M 172.082031 57.851562 C 176.449219 62.222656 176.851562 67.699219 176.765625 70.242188 C 169.730469 70.625 164.957031 66.082031 164.410156 65.53125 C 160.039062 61.160156 159.640625 55.679688 159.726562 53.136719 C 166.761719 52.753906 171.53125 57.300781 172.082031 57.851562 Z M 164.765625 70.265625 L 144.894531 70.265625 C 145.617188 67.46875 146.984375 65.027344 149 63.011719 C 149.355469 62.660156 152.289062 59.839844 156.804688 58.730469 C 157.5 61.660156 158.96875 65.011719 161.949219 67.992188 C 162.339844 68.382812 163.304688 69.289062 164.765625 70.265625 Z M 158.949219 49.707031 C 154.894531 45.394531 154.503906 40.136719 154.589844 37.660156 C 161.628906 37.277344 166.394531 41.824219 166.945312 42.375 C 170.488281 45.917969 171.417969 50.1875 171.601562 53.03125 C 168.875 51.230469 164.496094 49.222656 158.949219 49.707031 Z M 175.726562 73.75 L 227.917969 73.75 L 229.773438 80.585938 L 144.308594 80.585938 L 144.308594 73.75 Z M 230.71875 84.066406 L 233.160156 93.058594 C 233.289062 93.539062 233.410156 94.023438 233.527344 94.507812 C 230.359375 91.226562 225.925781 89.183594 221.027344 89.183594 C 217.230469 89.183594 213.566406 90.421875 210.558594 92.691406 C 207.644531 90.492188 204.023438 89.183594 200.105469 89.183594 C 196.308594 89.183594 192.644531 90.421875 189.636719 92.691406 C 186.722656 90.492188 183.101562 89.183594 179.183594 89.183594 C 175.386719 89.183594 171.722656 90.421875 168.714844 92.691406 C 165.800781 90.492188 162.179688 89.183594 158.261719 89.183594 C 152.558594 89.183594 147.492188 91.945312 144.308594 96.207031 L 144.308594 84.066406 Z M 158.257812 92.664062 C 165.953125 92.664062 172.210938 98.957031 172.210938 106.6875 L 172.210938 109.820312 L 144.308594 109.820312 L 144.308594 106.6875 C 144.308594 98.957031 150.566406 92.664062 158.257812 92.664062 Z M 65.566406 25.601562 L 219.570312 25.601562 C 221.765625 25.601562 223.855469 26.226562 225.644531 27.320312 L 224.75 30.613281 C 223.359375 35.738281 218.699219 39.3125 213.417969 39.3125 L 212.613281 39.3125 C 212.933594 36.773438 212.726562 34.808594 212.625 34.109375 C 212.515625 33.339844 211.914062 32.738281 211.148438 32.628906 C 201.890625 31.308594 195.632812 37.03125 194.472656 38.191406 C 194.105469 38.5625 193.769531 38.9375 193.445312 39.3125 L 168.769531 39.3125 C 166.695312 37.476562 160.875 33.1875 152.730469 34.351562 C 151.964844 34.460938 151.363281 35.0625 151.253906 35.828125 C 151.179688 36.359375 151.039062 37.625 151.121094 39.316406 L 127.59375 39.316406 C 124.535156 36.136719 120.253906 34.15625 115.515625 34.15625 L 77.566406 34.15625 C 73.429688 34.15625 69.613281 35.640625 66.664062 38.160156 C 63.601562 36.6875 61.289062 33.9375 60.386719 30.617188 L 59.492188 27.320312 C 61.28125 26.226562 63.371094 25.601562 65.566406 25.601562 Z M 130.179688 42.796875 L 140.828125 42.796875 L 140.828125 109.820312 L 132.324219 109.820312 L 132.324219 51.035156 C 132.324219 48.042969 131.542969 45.234375 130.179688 42.796875 Z M 128.847656 51.035156 L 128.847656 109.820312 L 50.597656 109.820312 L 64.566406 48.0625 C 65.957031 41.925781 71.300781 37.636719 77.566406 37.636719 L 115.515625 37.636719 C 122.867188 37.636719 128.847656 43.648438 128.847656 51.035156 Z M 38.28125 93.058594 L 54.234375 34.300781 C 54.691406 32.621094 55.503906 31.109375 56.570312 29.835938 L 57.027344 31.527344 C 58.097656 35.46875 60.703125 38.792969 64.1875 40.789062 C 62.769531 42.664062 61.726562 44.863281 61.175781 47.296875 L 47.089844 109.542969 C 42.296875 108.574219 38.3125 105.011719 36.878906 100.1875 C 37.179688 97.785156 37.644531 95.402344 38.28125 93.058594 Z M 248.671875 149.601562 C 248.671875 156.109375 243.402344 161.40625 236.925781 161.40625 L 48.210938 161.40625 C 41.734375 161.40625 36.464844 156.109375 36.464844 149.601562 L 36.464844 133.523438 C 39.257812 136.921875 43.488281 139.09375 48.210938 139.09375 L 236.925781 139.09375 C 241.648438 139.09375 245.878906 136.921875 248.671875 133.523438 Z M 248.671875 123.804688 C 248.671875 130.316406 243.402344 135.613281 236.925781 135.613281 L 48.210938 135.613281 C 41.734375 135.613281 36.464844 130.316406 36.464844 123.804688 L 36.464844 106.835938 C 39.601562 110.816406 44.449219 113.300781 49.726562 113.300781 L 235.410156 113.300781 C 240.6875 113.300781 245.535156 110.816406 248.671875 106.835938 Z M 248.671875 123.804688 " fill-opacity="1" fill-rule="nonzero"/></g><g fill="#000000" fill-opacity="1"><g transform="translate(297.227393, 117.349821)"><g><path d="M 24.390625 -80.046875 C 35.015625 -80.046875 42.375 -78.289062 46.46875 -74.78125 C 50.570312 -71.269531 52.625 -65.742188 52.625 -58.203125 C 52.625 -50.660156 51.132812 -44.984375 48.15625 -41.171875 C 52.53125 -37.554688 54.71875 -31.472656 54.71875 -22.921875 C 54.71875 -6.523438 45.300781 1.671875 26.46875 1.671875 C 24.25 1.671875 16.988281 1.113281 4.6875 0 L 4.6875 -78.375 C 11.914062 -79.488281 18.484375 -80.046875 24.390625 -80.046875 Z M 36.9375 -13.65625 C 38.300781 -15.1875 38.984375 -18.3125 38.984375 -23.03125 C 38.984375 -27.757812 38.457031 -30.609375 37.40625 -31.578125 C 36.363281 -32.546875 33.671875 -33.03125 29.328125 -33.03125 C 24.992188 -33.03125 22.253906 -32.960938 21.109375 -32.828125 C 19.960938 -32.691406 19.390625 -32.273438 19.390625 -31.578125 L 19.390625 -12.921875 C 19.390625 -12.160156 19.859375 -11.707031 20.796875 -11.5625 C 21.734375 -11.425781 24.316406 -11.359375 28.546875 -11.359375 C 32.785156 -11.359375 35.582031 -12.125 36.9375 -13.65625 Z M 21.265625 -45.953125 C 27.304688 -45.953125 31.421875 -46.679688 33.609375 -48.140625 C 35.796875 -49.609375 36.890625 -52.84375 36.890625 -57.84375 C 36.890625 -60.6875 36.28125 -63.03125 35.0625 -64.875 C 33.851562 -66.71875 32.550781 -67.640625 31.15625 -67.640625 C 25.25 -67.640625 21.671875 -67.253906 20.421875 -66.484375 C 20.003906 -66.210938 19.660156 -65.796875 19.390625 -65.234375 L 19.390625 -47.625 C 19.390625 -46.789062 19.523438 -46.304688 19.796875 -46.171875 C 20.285156 -46.023438 20.773438 -45.953125 21.265625 -45.953125 Z M 21.265625 -45.953125 "/></g></g></g><g fill="#000000" fill-opacity="1"><g transform="translate(355.584555, 117.349821)"><g><path d="M 23.65625 1.671875 C 16.21875 1.671875 11.054688 -0.34375 8.171875 -4.375 C 5.296875 -8.40625 3.859375 -15.628906 3.859375 -26.046875 C 3.859375 -33.554688 4.515625 -39.273438 5.828125 -43.203125 C 7.148438 -47.128906 9.148438 -49.800781 11.828125 -51.21875 C 14.503906 -52.644531 18.445312 -53.359375 23.65625 -53.359375 C 28.863281 -53.359375 32.804688 -52.628906 35.484375 -51.171875 C 38.160156 -49.710938 40.125 -47.003906 41.375 -43.046875 C 42.625 -39.085938 43.25 -33.457031 43.25 -26.15625 C 43.25 -25.738281 43.25 -25.320312 43.25 -24.90625 C 43.25 -24.488281 42.429688 -24.101562 40.796875 -23.75 C 39.171875 -23.40625 37.207031 -23.234375 34.90625 -23.234375 L 18.859375 -23.234375 C 19.003906 -15.109375 19.597656 -10.488281 20.640625 -9.375 C 21.265625 -8.820312 22.269531 -8.546875 23.65625 -8.546875 C 32.757812 -8.546875 38.976562 -9 42.3125 -9.90625 C 42.445312 -9.96875 42.550781 -10 42.625 -10 C 43.113281 -10.144531 43.515625 -9.867188 43.828125 -9.171875 C 44.140625 -8.472656 44.296875 -6.835938 44.296875 -4.265625 C 44.296875 -1.703125 43.738281 -0.28125 42.625 0 C 39.78125 1.113281 33.457031 1.671875 23.65625 1.671875 Z M 18.859375 -39.703125 L 18.859375 -31.578125 L 29.390625 -31.578125 C 29.109375 -39.640625 28.3125 -43.671875 27 -43.671875 C 24.632812 -43.671875 22.6875 -43.320312 21.15625 -42.625 C 19.625 -41.925781 18.859375 -40.953125 18.859375 -39.703125 Z M 18.859375 -39.703125 "/></g></g></g><g fill="#000000" fill-opacity="1"><g transform="translate(402.895531, 117.349821)"><g><path d="M 31.46875 -53.359375 C 36.613281 -53.359375 40.382812 -51.757812 42.78125 -48.5625 C 45.175781 -45.363281 46.375 -39.738281 46.375 -31.6875 L 46.375 0 C 46.375 0.414062 46.335938 0.691406 46.265625 0.828125 C 45.921875 1.390625 44.582031 1.671875 42.25 1.671875 C 39.925781 1.671875 37.546875 1.492188 35.109375 1.140625 C 32.679688 0.796875 31.46875 0.414062 31.46875 0 L 31.375 -31.6875 C 31.375 -39.46875 30.816406 -43.359375 29.703125 -43.359375 C 27.203125 -43.359375 23.867188 -42.109375 19.703125 -39.609375 L 19.703125 0 C 19.703125 0.414062 19.664062 0.691406 19.59375 0.828125 C 19.25 1.390625 17.910156 1.671875 15.578125 1.671875 C 13.253906 1.671875 10.859375 1.492188 8.390625 1.140625 C 5.921875 0.796875 4.6875 0.414062 4.6875 0 L 4.6875 -51.6875 C 4.6875 -52.800781 6.078125 -53.359375 8.859375 -53.359375 C 13.234375 -53.359375 15.734375 -52.800781 16.359375 -51.6875 C 16.359375 -51.550781 16.394531 -51.484375 16.46875 -51.484375 L 18.453125 -47.53125 C 24.285156 -51.414062 28.625 -53.359375 31.46875 -53.359375 Z M 31.46875 -53.359375 "/></g></g></g><g fill="#000000" fill-opacity="1"><g transform="translate(453.74964, 117.349821)"><g><path d="M 9.6875 -43.359375 L 1.359375 -43.359375 C 0.523438 -43.359375 0.0546875 -43.546875 -0.046875 -43.921875 C -0.148438 -44.304688 -0.203125 -44.742188 -0.203125 -45.234375 C -0.203125 -48.222656 0.316406 -49.820312 1.359375 -50.03125 L 9.6875 -51.6875 L 15.53125 -63.46875 C 16.363281 -64.507812 17.960938 -65.03125 20.328125 -65.03125 C 20.953125 -65.03125 21.539062 -63.78125 22.09375 -61.28125 C 22.644531 -58.78125 23.234375 -55.582031 23.859375 -51.6875 L 33.875 -51.6875 C 34.976562 -51.6875 35.53125 -50.296875 35.53125 -47.515625 C 35.53125 -44.742188 34.976562 -43.359375 33.875 -43.359375 L 23.765625 -43.359375 L 23.765625 -10.21875 L 25.421875 1.5625 L 25.421875 1.671875 C 25.492188 2.085938 25.492188 2.363281 25.421875 2.5 C 25.078125 3.050781 23.34375 3.328125 20.21875 3.328125 C 17.09375 3.328125 15.21875 2.703125 14.59375 1.453125 L 9.6875 -8.4375 Z M 9.6875 -43.359375 "/></g></g></g><g fill="#000000" fill-opacity="1"><g transform="translate(488.868146, 117.349821)"><g><path d="M 3.859375 -26.046875 C 3.859375 -33.628906 4.515625 -39.363281 5.828125 -43.25 C 7.148438 -47.144531 9.234375 -49.800781 12.078125 -51.21875 C 14.929688 -52.644531 19.132812 -53.359375 24.6875 -53.359375 C 30.25 -53.359375 34.453125 -52.644531 37.296875 -51.21875 C 40.148438 -49.800781 42.238281 -47.144531 43.5625 -43.25 C 44.882812 -39.363281 45.546875 -33.628906 45.546875 -26.046875 C 45.546875 -15.628906 44.050781 -8.40625 41.0625 -4.375 C 38.070312 -0.34375 32.613281 1.671875 24.6875 1.671875 C 16.769531 1.671875 11.316406 -0.34375 8.328125 -4.375 C 5.347656 -8.40625 3.859375 -15.628906 3.859375 -26.046875 Z M 18.03125 -26.046875 C 18.03125 -14.378906 19.140625 -8.546875 21.359375 -8.546875 C 24.421875 -8.546875 26.679688 -9.03125 28.140625 -10 C 28.898438 -10.5625 29.421875 -11.570312 29.703125 -13.03125 C 30.253906 -15.945312 30.53125 -20.285156 30.53125 -26.046875 C 30.53125 -37.585938 29.421875 -43.359375 27.203125 -43.359375 C 23.035156 -43.359375 20.460938 -42.398438 19.484375 -40.484375 C 18.515625 -38.578125 18.03125 -33.765625 18.03125 -26.046875 Z M 18.03125 -26.046875 "/></g></g></g><g fill="#000000" fill-opacity="1"><g transform="translate(538.263323, 117.349821)"><g><path d="M 5 -7.609375 C 3.539062 -9.410156 2.8125 -10.78125 2.8125 -11.71875 C 2.8125 -12.65625 3.628906 -13.941406 5.265625 -15.578125 C 6.898438 -17.210938 7.976562 -18.097656 8.5 -18.234375 C 9.019531 -18.378906 9.519531 -18.453125 10 -18.453125 C 10.488281 -18.453125 11.289062 -18.140625 12.40625 -17.515625 C 17.539062 -13.484375 22.050781 -11.46875 25.9375 -11.46875 C 29.832031 -11.46875 32.367188 -12.367188 33.546875 -14.171875 C 34.734375 -15.984375 35.328125 -18.347656 35.328125 -21.265625 C 35.328125 -24.179688 34.285156 -26.539062 32.203125 -28.34375 C 30.117188 -30.15625 26.695312 -32.34375 21.9375 -34.90625 C 17.175781 -37.476562 13.023438 -40.8125 9.484375 -44.90625 C 5.941406 -49.007812 4.171875 -53.253906 4.171875 -57.640625 C 4.171875 -65.421875 6.203125 -71.097656 10.265625 -74.671875 C 14.328125 -78.253906 20.285156 -80.046875 28.140625 -80.046875 C 32.929688 -80.046875 37.617188 -78.894531 42.203125 -76.59375 C 44.640625 -75.625 45.785156 -74.617188 45.640625 -73.578125 C 45.578125 -73.160156 45.507812 -72.535156 45.4375 -71.703125 C 44.113281 -67.953125 43.109375 -65.796875 42.421875 -65.234375 C 42.210938 -65.097656 41.742188 -65.03125 41.015625 -65.03125 C 40.285156 -65.03125 38.351562 -65.601562 35.21875 -66.75 C 32.09375 -67.894531 29.4375 -68.46875 27.25 -68.46875 C 25.0625 -68.46875 23.238281 -67.703125 21.78125 -66.171875 C 20.320312 -64.648438 19.59375 -62.5 19.59375 -59.71875 C 19.59375 -56.9375 20.84375 -54.414062 23.34375 -52.15625 C 25.84375 -49.90625 29.695312 -47.5625 34.90625 -45.125 C 40.394531 -42.28125 44.507812 -39.328125 47.25 -36.265625 C 50 -33.210938 51.375 -29.113281 51.375 -23.96875 C 51.375 -6.875 44.148438 1.671875 29.703125 1.671875 C 18.929688 1.671875 10.695312 -1.421875 5 -7.609375 Z M 5 -7.609375 "/></g></g></g><g fill="#000000" fill-opacity="1"><g transform="translate(592.660542, 117.349821)"><g><path d="M 4.890625 0 L 4.890625 -51.6875 C 4.890625 -52.800781 6.140625 -53.359375 8.640625 -53.359375 C 11.148438 -53.359375 13.515625 -53.179688 15.734375 -52.828125 C 17.960938 -52.484375 19.078125 -52.101562 19.078125 -51.6875 L 19.078125 0 C 19.078125 0.414062 19.039062 0.691406 18.96875 0.828125 C 18.625 1.390625 17.300781 1.671875 15 1.671875 C 12.707031 1.671875 10.445312 1.492188 8.21875 1.140625 C 6 0.796875 4.890625 0.414062 4.890625 0 Z M 11.359375 -65.03125 C 6.359375 -65.03125 3.859375 -67.53125 3.859375 -72.53125 C 3.859375 -77.539062 6.359375 -80.046875 11.359375 -80.046875 C 16.359375 -80.046875 18.859375 -77.539062 18.859375 -72.53125 C 18.859375 -67.53125 16.359375 -65.03125 11.359375 -65.03125 Z M 11.359375 -65.03125 "/></g></g></g><g fill="#000000" fill-opacity="1"><g transform="translate(616.316031, 117.349821)"><g><path d="M 9.6875 -43.359375 L 1.359375 -43.359375 C 0.523438 -43.359375 0.0546875 -43.546875 -0.046875 -43.921875 C -0.148438 -44.304688 -0.203125 -44.742188 -0.203125 -45.234375 C -0.203125 -48.222656 0.316406 -49.820312 1.359375 -50.03125 L 9.6875 -51.6875 L 15.53125 -63.46875 C 16.363281 -64.507812 17.960938 -65.03125 20.328125 -65.03125 C 20.953125 -65.03125 21.539062 -63.78125 22.09375 -61.28125 C 22.644531 -58.78125 23.234375 -55.582031 23.859375 -51.6875 L 33.875 -51.6875 C 34.976562 -51.6875 35.53125 -50.296875 35.53125 -47.515625 C 35.53125 -44.742188 34.976562 -43.359375 33.875 -43.359375 L 23.765625 -43.359375 L 23.765625 -10.21875 L 25.421875 1.5625 L 25.421875 1.671875 C 25.492188 2.085938 25.492188 2.363281 25.421875 2.5 C 25.078125 3.050781 23.34375 3.328125 20.21875 3.328125 C 17.09375 3.328125 15.21875 2.703125 14.59375 1.453125 L 9.6875 -8.4375 Z M 9.6875 -43.359375 "/></g></g></g><g fill="#000000" fill-opacity="1"><g transform="translate(651.434536, 117.349821)"><g><path d="M 23.65625 1.671875 C 16.21875 1.671875 11.054688 -0.34375 8.171875 -4.375 C 5.296875 -8.40625 3.859375 -15.628906 3.859375 -26.046875 C 3.859375 -33.554688 4.515625 -39.273438 5.828125 -43.203125 C 7.148438 -47.128906 9.148438 -49.800781 11.828125 -51.21875 C 14.503906 -52.644531 18.445312 -53.359375 23.65625 -53.359375 C 28.863281 -53.359375 32.804688 -52.628906 35.484375 -51.171875 C 38.160156 -49.710938 40.125 -47.003906 41.375 -43.046875 C 42.625 -39.085938 43.25 -33.457031 43.25 -26.15625 C 43.25 -25.738281 43.25 -25.320312 43.25 -24.90625 C 43.25 -24.488281 42.429688 -24.101562 40.796875 -23.75 C 39.171875 -23.40625 37.207031 -23.234375 34.90625 -23.234375 L 18.859375 -23.234375 C 19.003906 -15.109375 19.597656 -10.488281 20.640625 -9.375 C 21.265625 -8.820312 22.269531 -8.546875 23.65625 -8.546875 C 32.757812 -8.546875 38.976562 -9 42.3125 -9.90625 C 42.445312 -9.96875 42.550781 -10 42.625 -10 C 43.113281 -10.144531 43.515625 -9.867188 43.828125 -9.171875 C 44.140625 -8.472656 44.296875 -6.835938 44.296875 -4.265625 C 44.296875 -1.703125 43.738281 -0.28125 42.625 0 C 39.78125 1.113281 33.457031 1.671875 23.65625 1.671875 Z M 18.859375 -39.703125 L 18.859375 -31.578125 L 29.390625 -31.578125 C 29.109375 -39.640625 28.3125 -43.671875 27 -43.671875 C 24.632812 -43.671875 22.6875 -43.320312 21.15625 -42.625 C 19.625 -41.925781 18.859375 -40.953125 18.859375 -39.703125 Z M 18.859375 -39.703125 "/></g></g></g><g fill="#000000" fill-opacity="1"><g transform="translate(698.745491, 117.349821)"><g><path d="M 33.65625 -39.390625 L 33.03125 -39.609375 L 29.078125 -41.578125 C 26.085938 -42.765625 23.515625 -43.359375 21.359375 -43.359375 C 18.234375 -43.210938 16.671875 -41.71875 16.671875 -38.875 C 16.671875 -37.757812 17.28125 -36.851562 18.5 -36.15625 C 19.71875 -35.46875 20.707031 -34.929688 21.46875 -34.546875 C 22.226562 -34.160156 23.335938 -33.625 24.796875 -32.9375 C 30.015625 -30.707031 33.890625 -28.238281 36.421875 -25.53125 C 38.960938 -22.820312 40.234375 -20.148438 40.234375 -17.515625 C 40.234375 -11.742188 38.703125 -7.101562 35.640625 -3.59375 C 32.585938 -0.0820312 28.4375 1.671875 23.1875 1.671875 C 17.9375 1.671875 13.816406 0.976562 10.828125 -0.40625 C 7.847656 -1.800781 5.347656 -3.785156 3.328125 -6.359375 C 3.054688 -6.492188 2.921875 -6.703125 2.921875 -6.984375 C 2.921875 -7.265625 2.972656 -7.613281 3.078125 -8.03125 C 3.179688 -8.445312 3.992188 -9.570312 5.515625 -11.40625 C 7.046875 -13.25 8.265625 -14.171875 9.171875 -14.171875 C 9.453125 -14.171875 9.726562 -14.03125 10 -13.75 C 13.6875 -10.832031 17.265625 -9.375 20.734375 -9.375 C 22.679688 -9.375 24.140625 -9.929688 25.109375 -11.046875 C 26.085938 -12.160156 26.578125 -13.375 26.578125 -14.6875 C 26.578125 -16.007812 26.019531 -17.085938 24.90625 -17.921875 C 23.789062 -18.753906 22.414062 -19.570312 20.78125 -20.375 C 19.15625 -21.175781 18.269531 -21.609375 18.125 -21.671875 C 17.988281 -21.742188 17.800781 -21.847656 17.5625 -21.984375 C 17.320312 -22.128906 17.097656 -22.234375 16.890625 -22.296875 C 13.335938 -24.035156 10.328125 -26.207031 7.859375 -28.8125 C 5.398438 -31.414062 4.171875 -34.316406 4.171875 -37.515625 C 4.171875 -43.078125 5.609375 -47.109375 8.484375 -49.609375 C 11.367188 -52.109375 15.941406 -53.359375 22.203125 -53.359375 C 24.554688 -53.359375 26.8125 -53.082031 28.96875 -52.53125 C 31.882812 -51.757812 33.96875 -50.851562 35.21875 -49.8125 L 35.328125 -49.8125 C 35.878906 -49.46875 36.207031 -49.050781 36.3125 -48.5625 C 36.414062 -48.082031 36.363281 -47.039062 36.15625 -45.4375 C 35.46875 -41.40625 34.632812 -39.390625 33.65625 -39.390625 Z M 33.65625 -39.390625 "/></g></g></g><g fill="#000000" fill-opacity="1"><g transform="translate(425.224188, 173.474114)"><g><path d="M 13.859375 0 L 3.78125 0 L 3.78125 -33.984375 L 12.890625 -33.984375 C 16.546875 -33.984375 19.332031 -32.976562 21.25 -30.96875 C 23.175781 -28.96875 24.140625 -26.300781 24.140625 -22.96875 L 24.140625 -9.6875 C 24.140625 -3.226562 20.710938 0 13.859375 0 Z M 21.421875 -9.203125 L 21.421875 -23.453125 C 21.421875 -26.171875 20.613281 -28.191406 19 -29.515625 C 17.382812 -30.835938 15.507812 -31.5 13.375 -31.5 L 6.5 -31.5 L 6.5 -2.421875 L 13.09375 -2.421875 C 18.644531 -2.421875 21.421875 -4.679688 21.421875 -9.203125 Z M 21.421875 -9.203125 "/></g></g></g><g fill="#000000" fill-opacity="1"><g transform="translate(470.593772, 173.474114)"><g><path d="M 19.875 0 L 3.78125 0 L 3.78125 -33.921875 L 19.96875 -33.921875 L 19.96875 -31.40625 L 6.5 -31.40625 L 6.5 -20.015625 L 15.75 -20.015625 L 14.828125 -17.359375 L 6.5 -17.359375 L 6.5 -2.421875 L 19.875 -2.421875 Z M 19.875 0 "/></g></g></g><g fill="#000000" fill-opacity="1"><g transform="translate(510.583316, 173.474114)"><g><path d="M 1.796875 -8.625 L 4.5625 -8.625 C 4.71875 -6.914062 5.578125 -5.394531 7.140625 -4.0625 C 8.710938 -2.738281 10.722656 -2.078125 13.171875 -2.078125 C 15.628906 -2.078125 17.695312 -2.632812 19.375 -3.75 C 21.0625 -4.863281 21.90625 -6.632812 21.90625 -9.0625 C 21.90625 -10.550781 21.425781 -11.816406 20.46875 -12.859375 C 19.519531 -13.910156 18.332031 -14.710938 16.90625 -15.265625 C 15.488281 -15.816406 13.945312 -16.40625 12.28125 -17.03125 C 10.625 -17.664062 9.082031 -18.289062 7.65625 -18.90625 C 6.238281 -19.519531 5.050781 -20.4375 4.09375 -21.65625 C 3.144531 -22.882812 2.671875 -24.359375 2.671875 -26.078125 C 2.671875 -28.335938 3.601562 -30.289062 5.46875 -31.9375 C 7.34375 -33.582031 10.046875 -34.40625 13.578125 -34.40625 C 16.253906 -34.40625 18.609375 -33.921875 20.640625 -32.953125 C 20.640625 -32.890625 20.367188 -32.035156 19.828125 -30.390625 C 17.984375 -31.328125 15.875 -31.796875 13.5 -31.796875 C 11.125 -31.796875 9.191406 -31.273438 7.703125 -30.234375 C 6.222656 -29.203125 5.484375 -27.769531 5.484375 -25.9375 C 5.484375 -23.863281 6.757812 -22.242188 9.3125 -21.078125 C 10.4375 -20.566406 11.6875 -20.082031 13.0625 -19.625 C 14.4375 -19.175781 15.816406 -18.675781 17.203125 -18.125 C 18.597656 -17.570312 19.859375 -16.945312 20.984375 -16.25 C 22.117188 -15.5625 23.039062 -14.617188 23.75 -13.421875 C 24.457031 -12.222656 24.8125 -10.851562 24.8125 -9.3125 C 24.8125 -6.332031 23.863281 -3.945312 21.96875 -2.15625 C 20.082031 -0.363281 17.273438 0.53125 13.546875 0.53125 C 9.816406 0.53125 6.941406 -0.394531 4.921875 -2.25 C 2.898438 -4.113281 1.859375 -6.238281 1.796875 -8.625 Z M 1.796875 -8.625 "/></g></g></g><g fill="#000000" fill-opacity="1"><g transform="translate(555.225865, 173.474114)"><g><path d="M 9.15625 0 L 6.453125 0 L 6.453125 -31.453125 L 3.203125 -31.546875 L 3.203125 -33.921875 L 9.15625 -33.921875 Z M 9.15625 0 "/></g></g></g><g fill="#000000" fill-opacity="1"><g transform="translate(585.473197, 173.474114)"><g><path d="M 23.078125 0 L 21.078125 0 L 20.40625 -1.984375 C 18.726562 -0.335938 16.425781 0.484375 13.5 0.484375 C 10.570312 0.484375 8.113281 -0.320312 6.125 -1.9375 C 4.144531 -3.550781 3.15625 -5.957031 3.15625 -9.15625 L 3.15625 -24.375 C 3.15625 -28.507812 4.5625 -31.4375 7.375 -33.15625 C 8.820312 -33.957031 10.546875 -34.359375 12.546875 -34.359375 C 15.035156 -34.359375 17.332031 -33.828125 19.4375 -32.765625 L 18.65625 -30.921875 C 16.8125 -31.597656 15.066406 -31.9375 13.421875 -31.9375 C 8.378906 -31.9375 5.859375 -29.5625 5.859375 -24.8125 L 5.859375 -9.0625 C 5.859375 -6.894531 6.5625 -5.195312 7.96875 -3.96875 C 9.375 -2.738281 11.164062 -2.125 13.34375 -2.125 C 15.53125 -2.125 17.269531 -2.753906 18.5625 -4.015625 C 19.851562 -5.273438 20.5 -6.941406 20.5 -9.015625 L 20.5 -11.875 L 17.296875 -11.875 L 16.375 -14.546875 L 23.078125 -14.546875 Z M 23.078125 0 "/></g></g></g><g fill="#000000" fill-opacity="1"><g transform="translate(628.952494, 173.474114)"><g><path d="M 27.625 0 L 24.90625 0 L 6.5 -28.9375 L 6.5 0 L 3.78125 0 L 3.78125 -33.921875 L 6.5 -33.921875 L 24.90625 -5 L 24.90625 -33.921875 L 27.625 -33.921875 Z M 27.625 0 "/></g></g></g></svg>